<svg xmlns="http://www.w3.org/2000/svg" xmlns:xlink="http://www.w3.org/1999/xlink" width="500" zoomAndPan="magnify" viewBox="0 0 375 374.999991" height="500" preserveAspectRatio="xMidYMid meet" version="1.0"><rect x="-37.5" width="450" fill="#ffffff" y="-37.499999" height="449.999989" fill-opacity="1"/><rect x="-37.5" width="450" fill="#f1faee" y="-37.499999" height="449.999989" fill-opacity="1"/><path fill="#e52124" d="M 118.574219 102.046875 C 119.160156 100.785156 119.777344 99.609375 120.425781 98.5 C 126.964844 86.847656 137.132812 78.121094 150.609375 73.777344 L 161.800781 70.167969 L 161.371094 74.976562 C 165.066406 72.941406 168.984375 71.398438 172.898438 70.691406 C 183.011719 68.871094 211.714844 63.878906 216.863281 54.785156 L 222.410156 45.007812 L 229.75 53.675781 C 232.371094 56.753906 234.773438 60.921875 236.285156 64.558594 C 237.765625 68.074219 238.691406 71.742188 238.875 75.378906 C 240.015625 74.851562 241.003906 74.359375 241.648438 74.023438 C 245.8125 71.832031 250.53125 67.484375 251.269531 62.828125 L 252.996094 47.199219 L 264.554688 58.761719 C 267.675781 61.875 270.539062 66.34375 272.453125 70.109375 C 277.015625 79.167969 278.679688 89.035156 277.046875 98.929688 C 276.613281 101.738281 275.871094 104.515625 274.914062 107.222656 C 271.527344 116.722656 265.207031 125.480469 257.464844 132.382812 C 252.6875 136.667969 246.675781 140.800781 240.292969 143.359375 C 240.292969 143.421875 240.324219 143.480469 240.355469 143.511719 C 241.835938 147.242188 244.886719 149.554688 248.863281 150.945312 C 271.679688 158.960938 284.289062 178.257812 277.351562 200.765625 L 273.589844 213.066406 L 272.605469 212.082031 C 272.296875 214.453125 271.890625 216.765625 271.429688 218.894531 C 268.222656 233.382812 260.488281 245.992188 246.953125 253.640625 C 245.628906 260.484375 242.976562 267.976562 240.140625 273.894531 C 232.648438 289.554688 220.4375 302.351562 202.835938 308.453125 L 193.496094 311.664062 L 193.089844 308.054688 C 192.011719 309.132812 190.9375 310.179688 189.886719 311.136719 C 177.988281 322.050781 163.3125 329.453125 146.660156 331.636719 L 144.8125 331.855469 L 143.085938 331.296875 C 135.59375 328.894531 127.824219 323.007812 123.105469 317.273438 C 111.453125 303.027344 111.484375 285.113281 116.324219 268.621094 C 114.875 266.835938 113.609375 264.859375 112.71875 263.042969 C 109.695312 257.0625 109.171875 250.707031 111.238281 244.636719 C 110.003906 242.851562 108.925781 240.96875 108.125 239.207031 C 104.703125 231.71875 104.394531 223.699219 107.292969 215.964844 C 108.832031 211.800781 111.023438 207.945312 114.074219 204.867188 C 112.378906 202.613281 111.363281 199.46875 110.929688 196.851562 C 109.851562 190.222656 111.515625 183.191406 114.011719 176.996094 C 115.832031 172.460938 118.390625 168.175781 121.84375 164.597656 C 117.589844 163.148438 113.644531 160.871094 110.25 157.757812 C 103.066406 151.128906 99.492188 141.664062 99.984375 132.351562 C 100.570312 121.53125 106.277344 111.972656 114.96875 104.949219 Z M 118.574219 102.046875 " fill-opacity="1" fill-rule="evenodd"/><path fill="#070202" d="M 120.023438 110.371094 C 120.023438 110.371094 120.886719 115.304688 121.71875 116.691406 C 121.71875 116.691406 125.972656 89.285156 153.136719 80.554688 C 153.136719 80.554688 152.335938 89.097656 153.136719 91.59375 C 153.136719 91.59375 161.769531 80.035156 174.378906 77.753906 C 186.988281 75.472656 216.679688 70.507812 223.707031 58.113281 C 223.707031 58.113281 236.316406 72.945312 228.792969 85.492188 C 228.792969 85.492188 233.082031 86.695312 245.410156 80.28125 C 257.777344 73.835938 258.917969 63.664062 258.917969 63.664062 C 258.917969 63.664062 272.757812 77.507812 269.429688 97.855469 C 266.097656 118.234375 246.121094 135.648438 231.753906 138.425781 C 231.753906 138.425781 230.613281 152.207031 246.121094 157.664062 C 261.628906 163.089844 276.640625 177.054688 269.953125 198.792969 C 269.953125 198.792969 267.886719 196.695312 265.144531 196.230469 C 265.144531 196.230469 270.167969 234.925781 239.863281 249.105469 C 239.863281 249.105469 235.082031 289.648438 200.152344 301.734375 C 200.152344 301.734375 199.382812 295.042969 197.285156 290.820312 C 197.285156 290.820312 180.453125 319.953125 145.582031 324.519531 C 145.582031 324.519531 109.203125 312.863281 124.894531 266.867188 C 124.894531 266.867188 112.71875 256.445312 120.023438 243.558594 C 120.023438 243.558594 109.109375 232.984375 114.566406 218.308594 C 120.023438 203.664062 130.632812 204.710938 137.011719 204.308594 C 143.425781 203.910156 143.425781 200.488281 143.425781 200.488281 C 143.425781 200.488281 135.347656 196.386719 128.320312 196.386719 C 128.320312 196.386719 122.863281 198.359375 120.488281 200.859375 C 120.488281 200.859375 115.183594 194.503906 121.226562 179.523438 C 127.269531 164.507812 138.492188 163.214844 138.492188 163.214844 C 138.492188 163.214844 137.011719 160.996094 137.011719 159.054688 C 109.820312 162.289062 96.007812 129.792969 120.023438 110.371094 Z M 120.023438 110.371094 " fill-opacity="1" fill-rule="evenodd"/><path fill="#e52124" d="M 145.460938 142.308594 C 145.460938 142.308594 133.714844 152.578125 125.113281 147.523438 C 116.539062 142.464844 113.027344 127.328125 120.546875 118.507812 C 120.546875 118.507812 123.167969 130.53125 127.054688 132.132812 C 127.054688 132.132812 124.34375 106.054688 149.5625 89.128906 C 149.5625 89.128906 148.328125 103.863281 152.550781 110.710938 C 152.550781 110.710938 159.859375 85 187.726562 82.402344 C 215.570312 79.789062 221.550781 71.804688 221.550781 71.804688 C 221.550781 71.804688 227.5 78.335938 218.21875 87.621094 C 208.910156 96.894531 205.765625 110.371094 205.765625 110.371094 C 205.765625 110.371094 223.460938 96.894531 232.742188 95.417969 C 242.050781 93.96875 255.523438 86.136719 259.378906 78.984375 C 259.378906 78.984375 264.28125 97.269531 254.660156 110.371094 C 245.011719 123.441406 230.828125 128.34375 218.742188 126.554688 C 206.65625 124.734375 180.175781 117.738281 173.363281 121.160156 C 173.363281 121.160156 174.625 112.035156 182.917969 104.480469 C 182.917969 104.480469 168.367188 112.683594 164.667969 122.949219 C 160.996094 133.214844 156.714844 133.617188 151.8125 134.292969 C 146.878906 134.941406 143.117188 124.335938 143.117188 124.335938 C 143.117188 124.335938 139.015625 137.777344 145.460938 142.308594 Z M 145.460938 142.308594 " fill-opacity="1" fill-rule="evenodd"/><path fill="#fefefe" d="M 157.851562 139.96875 C 157.851562 139.96875 150.824219 144.066406 149.25 155.628906 C 149.25 155.628906 151.351562 150.417969 157.851562 147.800781 C 157.851562 147.800781 149.25 154.242188 149.25 161.488281 C 149.25 168.730469 152.582031 171.910156 159.582031 164.417969 C 166.609375 156.921875 176.074219 144.871094 191.582031 146.105469 C 191.582031 146.105469 186.308594 147.523438 182.917969 148.910156 C 182.917969 148.910156 192.011719 149.496094 198.488281 160.65625 C 204.960938 171.84375 200.15625 201.566406 182.917969 202.214844 C 182.917969 202.214844 190.597656 225.675781 182.917969 249.445312 C 182.917969 249.445312 181.777344 240.164062 178.511719 234.863281 C 178.511719 234.863281 174.5625 262.949219 144.074219 265.230469 C 144.074219 265.230469 125.296875 294.242188 148.976562 313.789062 C 148.976562 313.789062 187.636719 300.75 201.265625 257.089844 C 201.265625 257.089844 206.785156 269.144531 204.003906 280.398438 C 204.003906 280.398438 240.816406 256.9375 229.9375 222.070312 C 229.9375 222.070312 240.109375 224.996094 241.15625 235.109375 C 241.15625 235.109375 271.308594 212.292969 252.378906 188.183594 C 252.378906 188.183594 259.378906 188.125 262.707031 191.699219 C 262.707031 191.699219 267.453125 178.75 249.234375 170.121094 C 230.984375 161.488281 224.511719 153.164062 221.179688 143.082031 C 217.851562 132.96875 190.164062 115.054688 157.851562 139.96875 Z M 157.851562 139.96875 " fill-opacity="1" fill-rule="evenodd"/><path fill="#e99c02" d="M 150.792969 173.355469 C 150.792969 173.355469 144.320312 174.683594 140.683594 167.898438 C 140.683594 167.898438 126.128906 172.429688 122.707031 194.046875 C 122.707031 194.046875 134.824219 184.085938 142.808594 185.285156 C 150.792969 186.519531 153.136719 183.40625 153.136719 183.40625 C 153.136719 183.40625 163.25 172.707031 150.792969 173.355469 Z M 150.792969 173.355469 " fill-opacity="1" fill-rule="evenodd"/><path fill="#e99c02" d="M 154.429688 186.148438 C 154.429688 186.148438 149.621094 188.953125 144.75 188.125 C 139.851562 187.257812 131.742188 192.902344 131.742188 192.902344 C 131.742188 192.902344 140.804688 192.53125 146.140625 195.707031 C 151.503906 198.914062 156.988281 189.789062 154.429688 186.148438 Z M 154.429688 186.148438 " fill-opacity="1" fill-rule="evenodd"/><path fill="#e52124" d="M 188.53125 157.664062 C 188.53125 157.664062 191.828125 165.957031 182.023438 172.894531 C 172.191406 179.800781 162.726562 175.234375 162.726562 175.234375 C 162.726562 175.234375 160.8125 177.859375 165.007812 181.679688 C 165.007812 181.679688 159.054688 184.949219 161.429688 188.34375 C 163.773438 191.761719 172.5625 195.121094 174.964844 190.46875 C 177.371094 185.84375 182.363281 194.230469 187.976562 188.679688 C 193.585938 183.128906 200.246094 165.03125 188.53125 157.664062 Z M 188.53125 157.664062 " fill-opacity="1" fill-rule="evenodd"/><path fill="#e52124" d="M 163.34375 195.523438 C 163.34375 195.523438 171.140625 197.804688 171.757812 201.71875 C 171.757812 201.71875 173.640625 200.980469 173.640625 198.605469 C 173.640625 198.605469 179.066406 198.175781 179.773438 205.972656 C 180.484375 213.808594 176.414062 257.214844 144.039062 258.847656 C 111.699219 260.480469 130.539062 231.472656 147.125 223.332031 C 163.742188 215.191406 160.875 203.632812 160.875 203.632812 C 160.875 203.632812 157.269531 215.34375 147.125 217.96875 C 137.011719 220.554688 126.378906 232.953125 126.378906 239.148438 C 126.378906 239.148438 114.503906 226.910156 123.261719 216.332031 C 132.019531 205.726562 142.625 211.617188 149.929688 206.714844 C 157.269531 201.84375 156.285156 198.546875 156.285156 198.546875 C 156.285156 198.546875 160.074219 199.097656 163.34375 195.523438 Z M 163.34375 195.523438 " fill-opacity="1" fill-rule="evenodd"/><path fill="#b8e1ed" d="M 163.957031 167.898438 C 163.957031 167.898438 169.753906 157.664062 173.851562 157.664062 C 177.925781 157.664062 177.925781 172.429688 163.957031 167.898438 Z M 163.957031 167.898438 " fill-opacity="1" fill-rule="evenodd"/><path fill="#d6d4d1" d="M 204.003906 280.398438 C 204.003906 280.398438 240.816406 256.9375 229.9375 222.070312 C 229.9375 222.070312 240.109375 224.996094 241.15625 235.109375 C 241.15625 235.109375 271.308594 212.292969 252.378906 188.183594 C 252.378906 188.183594 259.378906 188.125 262.707031 191.699219 C 253.828125 172.15625 230.550781 175.207031 230.550781 175.207031 C 250.898438 192.75 240.722656 212.851562 240.722656 212.851562 C 238.257812 205.140625 220.410156 192.75 220.410156 192.75 C 229.164062 210.292969 215.84375 241.214844 215.84375 241.214844 C 214.089844 227.523438 200.152344 212.203125 200.152344 212.203125 C 201.785156 263.75 148.972656 313.789062 148.972656 313.789062 C 148.972656 313.789062 187.632812 300.75 201.261719 257.089844 C 201.261719 257.089844 206.785156 269.144531 204.003906 280.398438 Z M 204.003906 280.398438 " fill-opacity="1" fill-rule="evenodd"/><path fill="#a21a1a" d="M 187.976562 188.679688 C 193.585938 183.128906 200.246094 165.03125 188.53125 157.664062 C 194.878906 166.386719 188.589844 184.242188 177.0625 183.34375 C 165.5625 182.453125 162.726562 175.238281 162.726562 175.238281 C 162.726562 175.238281 160.8125 177.859375 165.007812 181.679688 C 165.007812 181.679688 174.316406 184.671875 174.503906 186.554688 C 174.65625 188.433594 168.613281 189.636719 165.40625 188.433594 C 162.230469 187.230469 162.140625 183.929688 162.140625 183.929688 C 161.0625 185.164062 160.289062 186.734375 161.429688 188.34375 C 163.773438 191.761719 172.5625 195.121094 174.964844 190.46875 C 177.371094 185.84375 182.363281 194.226562 187.976562 188.679688 Z M 187.976562 188.679688 " fill-opacity="1" fill-rule="evenodd"/><path fill="#a21a1a" d="M 151.871094 125.140625 C 146.753906 125.292969 142.929688 113.886719 142.929688 113.886719 C 135.441406 122.703125 137.011719 127.359375 137.011719 139.628906 C 137.011719 151.929688 125.113281 147.523438 125.113281 147.523438 C 133.714844 152.578125 145.460938 142.308594 145.460938 142.308594 C 139.015625 137.777344 143.117188 124.335938 143.117188 124.335938 C 143.117188 124.335938 146.878906 134.941406 151.8125 134.292969 C 156.714844 133.617188 160.996094 133.214844 164.667969 122.949219 C 168.367188 112.683594 182.917969 104.480469 182.917969 104.480469 C 174.625 112.035156 173.363281 121.160156 173.363281 121.160156 C 177.460938 104.949219 204.714844 92.363281 206.226562 91.683594 C 205.792969 91.871094 202.679688 93.042969 182.886719 98.589844 C 160.8125 104.789062 156.988281 124.984375 151.871094 125.140625 Z M 151.871094 125.140625 " fill-opacity="1" fill-rule="evenodd"/><path fill="#a21a1a" d="M 254.660156 110.371094 C 264.28125 97.269531 259.378906 78.984375 259.378906 78.984375 C 261.136719 90.082031 241.066406 101.921875 221.273438 110.371094 C 208.972656 115.613281 206.164062 120.886719 205.824219 124.121094 C 210.757812 125.105469 215.320312 126.03125 218.742188 126.554688 C 230.828125 128.34375 245.011719 123.441406 254.660156 110.371094 Z M 254.660156 110.371094 " fill-opacity="1" fill-rule="evenodd"/><path fill="#a21a1a" d="M 126.378906 239.148438 C 126.378906 232.953125 137.011719 220.554688 147.125 217.96875 C 157.269531 215.347656 160.875 203.632812 160.875 203.632812 C 160.875 203.632812 163.742188 215.191406 147.125 223.332031 C 161.03125 219.785156 171.757812 201.71875 171.757812 201.71875 L 170.464844 199.375 C 168.089844 196.910156 163.34375 195.523438 163.34375 195.523438 C 160.074219 199.097656 156.285156 198.546875 156.285156 198.546875 C 158.84375 204.277344 152.054688 211.15625 137.011719 217.164062 C 121.996094 223.207031 126.378906 239.148438 126.378906 239.148438 Z M 126.378906 239.148438 " fill-opacity="1" fill-rule="evenodd"/><path fill="#a21a1a" d="M 144.039062 258.847656 C 176.414062 257.214844 180.484375 213.808594 179.773438 205.976562 C 179.066406 198.175781 173.640625 198.605469 173.640625 198.605469 C 173.640625 198.605469 178.324219 222.621094 160.875 238.59375 C 145.554688 252.621094 127.425781 255.273438 126.40625 248.675781 C 126.003906 254.902344 130.597656 259.527344 144.039062 258.847656 Z M 144.039062 258.847656 " fill-opacity="1" fill-rule="evenodd"/><path fill="#d6d4d1" d="M 159.582031 164.414062 C 166.578125 156.953125 176.011719 144.960938 191.425781 146.074219 C 199.472656 144.039062 203.574219 145.023438 203.574219 145.023438 C 179.558594 132.382812 163.957031 152.328125 155.078125 160.65625 C 152.613281 162.964844 150.792969 163.953125 149.4375 164.199219 C 150.238281 169.410156 153.539062 170.890625 159.582031 164.414062 Z M 159.582031 164.414062 " fill-opacity="1" fill-rule="evenodd"/><path fill="#b8e1ed" d="M 163.957031 167.898438 C 163.957031 167.898438 169.261719 157.199219 176.996094 155.445312 C 184.738281 153.683594 188.992188 149.371094 189.734375 147.980469 C 190.441406 146.597656 192.167969 144.714844 196.609375 143.851562 C 201.046875 142.988281 204.128906 140.863281 206.8125 137.378906 C 206.8125 137.378906 205.640625 142.679688 197.4375 144.960938 C 189.269531 147.242188 190.964844 152.054688 186.402344 153.683594 C 181.871094 155.320312 177.675781 156.523438 177.121094 157.664062 C 176.539062 158.804688 174.191406 163.460938 170.09375 165.03125 C 166.023438 166.574219 163.957031 167.898438 163.957031 167.898438 Z M 163.957031 167.898438 " fill-opacity="1" fill-rule="evenodd"/><path fill="#fefefe" d="M 157.851562 139.96875 C 157.851562 139.96875 150.824219 144.066406 149.25 155.628906 C 149.25 155.628906 151.351562 150.417969 157.851562 147.800781 C 157.851562 147.800781 149.25 154.242188 149.25 161.488281 C 149.25 168.730469 152.582031 171.910156 159.582031 164.417969 C 166.609375 156.921875 176.074219 144.871094 191.582031 146.105469 C 191.582031 146.105469 186.308594 147.523438 182.917969 148.910156 C 182.917969 148.910156 192.011719 149.496094 198.488281 160.65625 C 204.960938 171.84375 200.15625 201.566406 182.917969 202.214844 C 182.917969 202.214844 190.597656 225.675781 182.917969 249.445312 C 182.917969 249.445312 181.777344 240.164062 178.511719 234.863281 C 178.511719 234.863281 174.5625 262.949219 144.074219 265.230469 C 144.074219 265.230469 125.296875 294.242188 148.976562 313.789062 C 148.976562 313.789062 187.636719 300.75 201.265625 257.089844 C 201.265625 257.089844 206.785156 269.144531 204.003906 280.398438 C 204.003906 280.398438 240.816406 256.9375 229.9375 222.070312 C 229.9375 222.070312 240.109375 224.996094 241.15625 235.109375 C 241.15625 235.109375 271.308594 212.292969 252.378906 188.183594 C 252.378906 188.183594 259.378906 188.125 262.707031 191.699219 C 262.707031 191.699219 267.453125 178.75 249.234375 170.121094 C 230.984375 161.488281 224.511719 153.164062 221.179688 143.082031 C 217.851562 132.96875 190.164062 115.054688 157.851562 139.96875 Z M 157.851562 139.96875 " fill-opacity="1" fill-rule="evenodd"/><path fill="#e99c02" d="M 150.792969 173.355469 C 150.792969 173.355469 144.320312 174.683594 140.683594 167.898438 C 140.683594 167.898438 126.128906 172.429688 122.707031 194.046875 C 122.707031 194.046875 134.824219 184.085938 142.808594 185.285156 C 150.792969 186.519531 153.136719 183.40625 153.136719 183.40625 C 153.136719 183.40625 163.25 172.707031 150.792969 173.355469 Z M 150.792969 173.355469 " fill-opacity="1" fill-rule="evenodd"/><path fill="#e99c02" d="M 154.429688 186.148438 C 154.429688 186.148438 149.621094 188.953125 144.75 188.125 C 139.851562 187.257812 131.742188 192.902344 131.742188 192.902344 C 131.742188 192.902344 140.804688 192.53125 146.140625 195.707031 C 151.503906 198.914062 156.988281 189.789062 154.429688 186.148438 Z M 154.429688 186.148438 " fill-opacity="1" fill-rule="evenodd"/><path fill="#e52124" d="M 188.53125 157.664062 C 188.53125 157.664062 191.828125 165.957031 182.023438 172.894531 C 172.191406 179.800781 162.726562 175.234375 162.726562 175.234375 C 162.726562 175.234375 160.8125 177.859375 165.007812 181.679688 C 165.007812 181.679688 159.054688 184.949219 161.429688 188.34375 C 163.773438 191.761719 172.5625 195.121094 174.964844 190.46875 C 177.371094 185.84375 182.363281 194.230469 187.976562 188.679688 C 193.585938 183.128906 200.246094 165.03125 188.53125 157.664062 Z M 188.53125 157.664062 " fill-opacity="1" fill-rule="evenodd"/><path fill="#e52124" d="M 163.34375 195.523438 C 163.34375 195.523438 171.140625 197.804688 171.757812 201.71875 C 171.757812 201.71875 173.640625 200.980469 173.640625 198.605469 C 173.640625 198.605469 179.066406 198.175781 179.773438 205.972656 C 180.484375 213.808594 176.414062 257.214844 144.039062 258.847656 C 111.699219 260.480469 130.539062 231.472656 147.125 223.332031 C 163.742188 215.191406 160.875 203.632812 160.875 203.632812 C 160.875 203.632812 157.269531 215.34375 147.125 217.96875 C 137.011719 220.554688 126.378906 232.953125 126.378906 239.148438 C 126.378906 239.148438 114.503906 226.910156 123.261719 216.332031 C 132.019531 205.726562 142.625 211.617188 149.929688 206.714844 C 157.269531 201.84375 156.285156 198.546875 156.285156 198.546875 C 156.285156 198.546875 160.074219 199.097656 163.34375 195.523438 Z M 163.34375 195.523438 " fill-opacity="1" fill-rule="evenodd"/><path fill="#b8e1ed" d="M 163.957031 167.898438 C 163.957031 167.898438 169.753906 157.664062 173.851562 157.664062 C 177.925781 157.664062 177.925781 172.429688 163.957031 167.898438 Z M 163.957031 167.898438 " fill-opacity="1" fill-rule="evenodd"/><path fill="#d6d4d1" d="M 204.003906 280.398438 C 204.003906 280.398438 240.816406 256.9375 229.9375 222.070312 C 229.9375 222.070312 240.109375 224.996094 241.15625 235.109375 C 241.15625 235.109375 271.308594 212.292969 252.378906 188.183594 C 252.378906 188.183594 259.378906 188.125 262.707031 191.699219 C 253.828125 172.15625 230.550781 175.207031 230.550781 175.207031 C 250.898438 192.75 240.722656 212.851562 240.722656 212.851562 C 238.257812 205.140625 220.410156 192.75 220.410156 192.75 C 229.164062 210.292969 215.84375 241.214844 215.84375 241.214844 C 214.089844 227.523438 200.152344 212.203125 200.152344 212.203125 C 201.785156 263.75 148.972656 313.789062 148.972656 313.789062 C 148.972656 313.789062 187.632812 300.75 201.261719 257.089844 C 201.261719 257.089844 206.785156 269.144531 204.003906 280.398438 Z M 204.003906 280.398438 " fill-opacity="1" fill-rule="evenodd"/><path fill="#a21a1a" d="M 187.976562 188.679688 C 193.585938 183.128906 200.246094 165.03125 188.53125 157.664062 C 194.878906 166.386719 188.589844 184.242188 177.0625 183.34375 C 165.5625 182.453125 162.726562 175.238281 162.726562 175.238281 C 162.726562 175.238281 160.8125 177.859375 165.007812 181.679688 C 165.007812 181.679688 174.316406 184.671875 174.503906 186.554688 C 174.65625 188.433594 168.613281 189.636719 165.40625 188.433594 C 162.230469 187.230469 162.140625 183.929688 162.140625 183.929688 C 161.0625 185.164062 160.289062 186.734375 161.429688 188.34375 C 163.773438 191.761719 172.5625 195.121094 174.964844 190.46875 C 177.371094 185.84375 182.363281 194.226562 187.976562 188.679688 Z M 187.976562 188.679688 " fill-opacity="1" fill-rule="evenodd"/><path fill="#a21a1a" d="M 254.660156 110.371094 C 264.28125 97.269531 259.378906 78.984375 259.378906 78.984375 C 261.136719 90.082031 241.066406 101.921875 221.273438 110.371094 C 208.972656 115.613281 206.164062 120.886719 205.824219 124.121094 C 210.757812 125.105469 215.320312 126.03125 218.742188 126.554688 C 230.828125 128.34375 245.011719 123.441406 254.660156 110.371094 Z M 254.660156 110.371094 " fill-opacity="1" fill-rule="evenodd"/><path fill="#a21a1a" d="M 126.378906 239.148438 C 126.378906 232.953125 137.011719 220.554688 147.125 217.96875 C 157.269531 215.347656 160.875 203.632812 160.875 203.632812 C 160.875 203.632812 163.742188 215.191406 147.125 223.332031 C 161.03125 219.785156 171.757812 201.71875 171.757812 201.71875 L 170.464844 199.375 C 168.089844 196.910156 163.34375 195.523438 163.34375 195.523438 C 160.074219 199.097656 156.285156 198.546875 156.285156 198.546875 C 158.84375 204.277344 152.054688 211.15625 137.011719 217.164062 C 121.996094 223.207031 126.378906 239.148438 126.378906 239.148438 Z M 126.378906 239.148438 " fill-opacity="1" fill-rule="evenodd"/><path fill="#a21a1a" d="M 144.039062 258.847656 C 176.414062 257.214844 180.484375 213.808594 179.773438 205.976562 C 179.066406 198.175781 173.640625 198.605469 173.640625 198.605469 C 173.640625 198.605469 178.324219 222.621094 160.875 238.59375 C 145.554688 252.621094 127.425781 255.273438 126.40625 248.675781 C 126.003906 254.902344 130.597656 259.527344 144.039062 258.847656 Z M 144.039062 258.847656 " fill-opacity="1" fill-rule="evenodd"/><path fill="#d6d4d1" d="M 159.582031 164.414062 C 166.578125 156.953125 176.011719 144.960938 191.425781 146.074219 C 199.472656 144.039062 203.574219 145.023438 203.574219 145.023438 C 179.558594 132.382812 163.957031 152.328125 155.078125 160.65625 C 152.613281 162.964844 150.792969 163.953125 149.4375 164.199219 C 150.238281 169.410156 153.539062 170.890625 159.582031 164.414062 Z M 159.582031 164.414062 " fill-opacity="1" fill-rule="evenodd"/></svg>